<?xml version="1.0" encoding="iso-8859-1"?>
<!-- Generator: Adobe Illustrator 18.0.0, SVG Export Plug-In . SVG Version: 6.00 Build 0)  -->
<!DOCTYPE svg PUBLIC "-//W3C//DTD SVG 1.1//EN" "http://www.w3.org/Graphics/SVG/1.1/DTD/svg11.dtd">
<svg version="1.1" id="Capa_1" xmlns="http://www.w3.org/2000/svg" xmlns:xlink="http://www.w3.org/1999/xlink" x="0px" y="0px"
	 viewBox="0 0 297.001 297.001" style="enable-background:new 0 0 297.001 297.001;" xml:space="preserve">
<path d="M281.301,33.92c-10.143-10.143-23.649-15.728-38.032-15.728c-10.657,0-20.855,3.055-29.616,8.768
	c-8.175-4.763-17.674-7.311-27.634-7.311c-14.864,0-28.684,5.633-38.912,15.861c-21.375,21.375-21.696,55.833-0.718,76.813
	l19.344,19.344l-88.317,88.318l-17.196-17.197c-5.118-5.12-13.419-5.118-18.537,0c-5.119,5.117-5.119,13.417,0,18.536l17.196,17.197
	l-8.642,8.642l-27.86-27.861c-5.117-5.12-13.418-5.118-18.537,0c-5.119,5.118-5.119,13.418,0,18.536l37.129,37.13
	c2.458,2.458,5.792,3.84,9.269,3.84c3.476,0,6.811-1.382,9.269-3.84L184.27,150.203l19.304,19.305
	c10.038,10.038,23.498,15.565,37.902,15.565c14.756,0,28.62-5.737,39.039-16.155c10.232-10.232,15.987-23.821,16.204-38.263
	c0.161-10.654-2.708-20.803-8.215-29.476C301.86,80.213,299.478,52.097,281.301,33.92z M261.979,150.382
	c-5.467,5.467-12.749,8.478-20.503,8.478c-7.401,0-14.279-2.802-19.365-7.888l-19.305-19.305l18.536-18.536l8.556,8.556
	c2.559,2.559,5.913,3.838,9.268,3.838c3.355,0,6.71-1.279,9.269-3.838c5.119-5.119,5.119-13.418,0-18.537l-8.556-8.555l5.704-5.704
	c5.119-5.119,5.119-13.418,0-18.536c-5.118-5.119-13.418-5.119-18.536,0l-5.704,5.703l-8.555-8.555
	c-5.118-5.118-13.419-5.118-18.537,0c-5.119,5.119-5.119,13.417,0,18.536l8.556,8.556l-18.536,18.536l-19.344-19.344
	c-10.76-10.759-10.438-28.586,0.718-39.74c5.277-5.277,12.513-8.184,20.375-8.184c7.243,0,14.173,2.608,19.015,7.156
	c4.836,4.544,12.305,4.759,17.391,0.495c0.31-0.259,0.616-0.542,0.904-0.832c5.354-5.337,12.433-8.276,19.941-8.276
	c7.382,0,14.306,2.859,19.496,8.05c10.767,10.767,10.697,28.372-0.121,39.335c-3.479,3.373-4.861,8.466-3.413,13.225
	c0.691,2.272,1.961,4.248,3.618,5.787c5.053,5.144,7.771,12.043,7.659,19.457C270.394,137.85,267.365,144.996,261.979,150.382z"/>
<g>
</g>
<g>
</g>
<g>
</g>
<g>
</g>
<g>
</g>
<g>
</g>
<g>
</g>
<g>
</g>
<g>
</g>
<g>
</g>
<g>
</g>
<g>
</g>
<g>
</g>
<g>
</g>
<g>
</g>
</svg>
