<?xml version="1.0" encoding="UTF-8" standalone="no"?>
<svg
   xmlns:dc="http://purl.org/dc/elements/1.1/"
   xmlns:cc="http://creativecommons.org/ns#"
   xmlns:rdf="http://www.w3.org/1999/02/22-rdf-syntax-ns#"
   xmlns:svg="http://www.w3.org/2000/svg"
   xmlns="http://www.w3.org/2000/svg"
   xmlns:sodipodi="http://sodipodi.sourceforge.net/DTD/sodipodi-0.dtd"
   xmlns:inkscape="http://www.inkscape.org/namespaces/inkscape"
   inkscape:version="1.0 (4035a4fb49, 2020-05-01)"
   sodipodi:docname="icon.svg"
   xml:space="preserve"
   style="enable-background:new 0 0 214.27 214.27;"
   viewBox="0 0 214.27 214.27"
   y="0px"
   x="0px"
   id="Capa_1"
   fill="#18FFFF"
   version="1.1"><metadata
   id="metadata917"><rdf:RDF><cc:Work
       rdf:about=""><dc:format>image/svg+xml</dc:format><dc:type
         rdf:resource="http://purl.org/dc/dcmitype/StillImage" /></cc:Work></rdf:RDF></metadata><defs
   id="defs915" /><sodipodi:namedview
   inkscape:current-layer="Capa_1"
   inkscape:window-maximized="1"
   inkscape:window-y="-8"
   inkscape:window-x="-8"
   inkscape:cy="107.135"
   inkscape:cx="107.135"
   inkscape:zoom="2.4035096"
   showgrid="false"
   id="namedview913"
   inkscape:window-height="705"
   inkscape:window-width="1366"
   inkscape:pageshadow="2"
   inkscape:pageopacity="0"
   guidetolerance="10"
   gridtolerance="10"
   objecttolerance="10"
   borderopacity="1"
   bordercolor="#666666"
   pagecolor="#ffffff" />
<g
   style="fill:#3cb68c;fill-opacity:1"
   id="g880">
	<path
   style="fill:#3cb68c;fill-opacity:1"
   id="path876"
   d="M196.926,55.171c-0.11-5.785-0.215-11.25-0.215-16.537c0-4.142-3.357-7.5-7.5-7.5c-32.075,0-56.496-9.218-76.852-29.01   c-2.912-2.832-7.546-2.831-10.457,0c-20.354,19.792-44.771,29.01-76.844,29.01c-4.142,0-7.5,3.358-7.5,7.5   c0,5.288-0.104,10.755-0.215,16.541c-1.028,53.836-2.436,127.567,87.331,158.682c0.796,0.276,1.626,0.414,2.456,0.414   c0.83,0,1.661-0.138,2.456-0.414C199.36,182.741,197.954,109.008,196.926,55.171z M107.131,198.812   c-76.987-27.967-75.823-89.232-74.79-143.351c0.062-3.248,0.122-6.396,0.164-9.482c30.04-1.268,54.062-10.371,74.626-28.285   c20.566,17.914,44.592,27.018,74.634,28.285c0.042,3.085,0.102,6.231,0.164,9.477C182.961,109.577,184.124,170.844,107.131,198.812   z" />
	<path
   style="fill:#3cb68c;fill-opacity:1"
   id="path878"
   d="M132.958,81.082l-36.199,36.197l-15.447-15.447c-2.929-2.928-7.678-2.928-10.606,0c-2.929,2.93-2.929,7.678,0,10.607   l20.75,20.75c1.464,1.464,3.384,2.196,5.303,2.196c1.919,0,3.839-0.732,5.303-2.196l41.501-41.5   c2.93-2.929,2.93-7.678,0.001-10.606C140.636,78.154,135.887,78.153,132.958,81.082z" />
</g>
<g
   id="g882">
</g>
<g
   id="g884">
</g>
<g
   id="g886">
</g>
<g
   id="g888">
</g>
<g
   id="g890">
</g>
<g
   id="g892">
</g>
<g
   id="g894">
</g>
<g
   id="g896">
</g>
<g
   id="g898">
</g>
<g
   id="g900">
</g>
<g
   id="g902">
</g>
<g
   id="g904">
</g>
<g
   id="g906">
</g>
<g
   id="g908">
</g>
<g
   id="g910">
</g>
</svg>
