<?xml version="1.0" encoding="UTF-8" standalone="no"?>
<svg
   xmlns:dc="http://purl.org/dc/elements/1.1/"
   xmlns:cc="http://creativecommons.org/ns#"
   xmlns:rdf="http://www.w3.org/1999/02/22-rdf-syntax-ns#"
   xmlns:svg="http://www.w3.org/2000/svg"
   xmlns="http://www.w3.org/2000/svg"
   xmlns:sodipodi="http://sodipodi.sourceforge.net/DTD/sodipodi-0.dtd"
   xmlns:inkscape="http://www.inkscape.org/namespaces/inkscape"
   inkscape:version="1.0 (4035a4fb49, 2020-05-01)"
   sodipodi:docname="enccopy.svg"
   id="svg885"
   version="1.1"
   width="480pt"
   viewBox="-48 0 480 480"
   height="480pt">
  <metadata
     id="metadata891">
    <rdf:RDF>
      <cc:Work
         rdf:about="">
        <dc:format>image/svg+xml</dc:format>
        <dc:type
           rdf:resource="http://purl.org/dc/dcmitype/StillImage" />
        <dc:title></dc:title>
      </cc:Work>
    </rdf:RDF>
  </metadata>
  <defs
     id="defs889" />
  <sodipodi:namedview
     inkscape:current-layer="svg885"
     inkscape:window-maximized="1"
     inkscape:window-y="-8"
     inkscape:window-x="-8"
     inkscape:cy="336.21465"
     inkscape:cx="264.66429"
     inkscape:zoom="0.56899999"
     showgrid="false"
     id="namedview887"
     inkscape:window-height="705"
     inkscape:window-width="1366"
     inkscape:pageshadow="2"
     inkscape:pageopacity="0"
     guidetolerance="10"
     gridtolerance="10"
     objecttolerance="10"
     borderopacity="1"
     bordercolor="#666666"
     pagecolor="#ffffff" />
  <path
     style="fill:#2979ff;fill-opacity:1"
     id="path863"
     fill="#e0e0e2"
     d="m280 88v-80h-240c-17.671875 0-32 14.328125-32 32v400c0 17.671875 14.328125 32 32 32h304c17.671875 0 32-14.328125 32-32v-336h-80c-8.835938 0-16-7.164062-16-16zm-240-32c0-8.835938 7.164062-16 16-16-8.835938 0-16 7.164062-16 16zm272 200v152c0 8.835938-7.164062 16-16 16h-208c-8.835938 0-16-7.164062-16-16v-152c0-8.835938 7.164062-16 16-16h16v-48c0-35.347656 28.652344-64 64-64h48c35.347656 0 64 28.652344 64 64v48h16c8.835938 0 16 7.164062 16 16zm0 0" />
  <path
     style="fill:#2979ff;fill-opacity:1"
     id="path865"
     fill="#c6c5ca"
     d="m280 88c0 8.835938 7.164062 16 16 16h80l-96-96zm0 0" />
  <path
     style="fill:#64ffda;fill-opacity:1"
     id="path867"
     fill="#ffcd00"
     d="m280 240h-192c-8.835938 0-16 7.164062-16 16v152c0 8.835938 7.164062 16 16 16h208c8.835938 0 16-7.164062 16-16v-152c0-8.835938-7.164062-16-16-16zm-72 91.679688v44.320312c0 8.835938-7.164062 16-16 16s-16-7.164062-16-16v-44.320312c-12.542969-7.242188-18.65625-22.003907-14.910156-35.996094 3.75-13.988282 16.425781-23.714844 30.910156-23.714844s27.160156 9.726562 30.910156 23.714844c3.746094 13.992187-2.367187 28.753906-14.910156 35.996094zm0 0" />
  <path
     style="fill:#ffffff;fill-opacity:1"
     id="path869"
     fill="#acabb1"
     d="m136 192c0-17.671875 14.328125-32 32-32h48c17.671875 0 32 14.328125 32 32v48h32v-48c0-35.347656-28.652344-64-64-64h-48c-35.347656 0-64 28.652344-64 64v48h32zm0 0" />
  <path
     style="fill:#2979ff;fill-opacity:1"
     id="path871"
     fill="#e0e0e2"
     d="m216 160h-48c-17.671875 0-32 14.328125-32 32v48h112v-48c0-17.671875-14.328125-32-32-32zm0 0" />
  <path
     style="fill:#ffffff;fill-opacity:1"
     id="path873"
     fill="#f1f2f2"
     d="m199.855469 272.9375c-15.496094-3.941406-31.519531 4.15625-37.535157 18.96875-6.015624 14.816406-.175781 31.796875 13.679688 39.773438v44.320312c0 8.835938 7.164062 16 16 16s16-7.164062 16-16v-44.320312c12.476562-7.183594 18.625-21.8125 15.015625-35.75-2.859375-11.367188-11.773437-20.214844-23.160156-22.992188zm0 0" />
  <g
     id="g883"
     fill="#231f20">
    <path
       style="fill:#ffffff;fill-opacity:1"
       id="path875"
       d="m383.902344 103.503906c-.042969-.707031-.183594-1.402344-.414063-2.070312-.089843-.257813-.152343-.496094-.265625-.746094-.386718-.871094-.929687-1.664062-1.597656-2.34375l-96-96c-.679688-.667969-1.472656-1.210938-2.34375-1.601562-.242188-.109376-.488281-.175782-.738281-.261719-.679688-.234375-1.386719-.375-2.101563-.417969-.128906.0273438-.273437-.0625-.441406-.0625h-240c-22.082031.0273438-39.9726562 17.917969-40 40v400c.0273438 22.082031 17.917969 39.972656 40 40h304c22.082031-.027344 39.972656-17.917969 40-40v-336c0-.167969-.089844-.320312-.097656-.496094zm-27.214844-7.503906h-60.6875c-4.417969 0-8-3.582031-8-8v-60.6875zm-12.6875 368h-304c-13.253906 0-24-10.746094-24-24v-400c0-13.253906 10.746094-24 24-24h232v72c0 13.253906 10.746094 24 24 24h72v328c0 13.253906-10.746094 24-24 24zm0 0" />
    <path
       id="path877"
       d="m296 232h-8v-40c-.042969-39.746094-32.253906-71.957031-72-72h-48c-39.746094.042969-71.957031 32.253906-72 72v40h-8c-13.253906 0-24 10.746094-24 24v152c0 13.253906 10.746094 24 24 24h208c13.253906 0 24-10.746094 24-24v-152c0-13.253906-10.746094-24-24-24zm-184-40c.039062-30.910156 25.089844-55.960938 56-56h48c30.910156.039062 55.960938 25.089844 56 56v40h-16v-40c-.027344-22.082031-17.917969-39.972656-40-40h-48c-22.082031.027344-39.972656 17.917969-40 40v40h-16zm128 40h-96v-40c0-13.253906 10.746094-24 24-24h48c13.253906 0 24 10.746094 24 24zm64 176c0 4.417969-3.582031 8-8 8h-208c-4.417969 0-8-3.582031-8-8v-152c0-4.417969 3.582031-8 8-8h208c4.417969 0 8 3.582031 8 8zm0 0" />
    <path
       id="path879"
       d="m201.710938 265.160156c-12.03125-2.949218-24.753907-.207031-34.503907 7.441406-9.746093 7.691407-15.367187 19.476563-15.210937 31.894532.15625 12.414062 6.070312 24.054687 16.003906 31.503906v40c0 13.253906 10.746094 24 24 24s24-10.746094 24-24v-40c12.945312-9.710938 18.78125-26.253906 14.792969-41.9375-3.550781-14.300781-14.757813-25.441406-29.082031-28.902344zm2.304687 59.582032c-2.476563 1.433593-4.003906 4.078124-4 6.9375v44.320312c0 4.417969-3.582031 8-8 8s-8-3.582031-8-8v-44.320312c.003906-2.859376-1.523437-5.503907-4-6.9375-6.871094-3.984376-11.328125-11.109376-11.902344-19.035157-.570312-7.921875 2.816407-15.617187 9.046875-20.546875 4.195313-3.355468 9.410156-5.175781 14.785156-5.160156 2.042969.003906 4.082032.25 6.070313.726562 8.441406 2.109376 15.054687 8.671876 17.222656 17.097657 2.714844 10.476562-1.878906 21.480469-11.238281 26.917969zm0 0" />
    <path
       style="fill:#ffffff;fill-opacity:1"
       id="path881"
       d="m112 40c0-4.417969-3.582031-8-8-8h-48c-13.253906 0-24 10.746094-24 24v48c0 4.417969 3.582031 8 8 8s8-3.582031 8-8v-48c0-4.417969 3.582031-8 8-8h48c4.417969 0 8-3.582031 8-8zm0 0" />
  </g>
</svg>
